<svg width="24" height="24" viewBox="0 0 24 24" fill="none" xmlns="http://www.w3.org/2000/svg">
<path d="M11.9977 0C6.47621 0.00468713 2.00469 4.4809 2 9.99766C2 15.2801 10.3993 22.5311 11.3508 23.3419L11.9977 23.8856L12.6445 23.3419C13.6007 22.5311 22 15.2801 22 9.99766C21.9906 4.4809 17.5191 0.00468713 11.9977 0ZM11.9977 14.9988C9.23693 14.9988 6.99648 12.7584 6.99648 9.99766C6.99648 7.23693 9.23693 5.00117 11.9977 5.00117C14.7584 5.00117 16.9988 7.24162 16.9988 10.0023C16.9941 12.7584 14.7584 14.9941 11.9977 14.9988Z" fill="#5F78AA"/>
<path d="M11.9977 12.9974C13.6544 12.9974 14.9974 11.6544 14.9974 9.99766C14.9974 8.34093 13.6544 6.99789 11.9977 6.99789C10.3409 6.99789 8.99789 8.34093 8.99789 9.99766C8.99789 11.6544 10.3409 12.9974 11.9977 12.9974Z" fill="#5F78AA"/>
</svg>
