<svg width="109" height="128" viewBox="0 0 109 128" fill="none" xmlns="http://www.w3.org/2000/svg">
<path d="M86.4502 2.09235V22.5975H65.003V2.09235H43.5008V22.5975H22.0536V2.09235H0.606476V72.4479L23.4871 50.7397L37.1052 63.66L37.1603 63.7123L5.1826 94.0515C6.56095 96.9808 8.15984 99.7532 10.0895 102.316L10.2549 102.526C12.0744 104.984 14.1143 107.286 16.3197 109.378C26.0233 118.584 39.476 124.338 54.307 124.338C67.3738 124.338 79.393 119.892 88.7107 112.517C91.1917 110.581 93.4522 108.384 95.4922 106.083C96.4846 104.932 97.4218 103.781 98.3591 102.526C99.3515 101.218 100.234 99.8578 101.061 98.4454C102.715 95.6208 104.148 92.6391 105.251 89.5006C106.464 86.1005 107.291 82.5435 107.677 78.8819C107.897 77.1034 108.008 75.2726 108.008 73.4418V2.09235H86.4502ZM54.2519 115.237C42.0673 115.237 31.0405 110.529 23.1012 102.944C20.7855 100.747 18.7456 98.3408 17.0364 95.7254L43.997 70.1463L81.8189 106.03C74.2655 111.837 64.6722 115.237 54.2519 115.237ZM88.6004 99.5962L37.1052 50.7397L43.8867 44.3057L43.9418 44.358L50.7785 50.8443L93.8933 91.7499C92.4046 94.5223 90.6404 97.19 88.6004 99.5962ZM98.2489 73.4941C98.2489 76.4234 97.9181 79.3527 97.3116 82.125L71.178 57.3306L77.9595 50.8966L98.1937 70.094V73.4941H98.2489Z" fill="#B3795A"/>
</svg>
