<svg width="29" height="29" viewBox="0 0 29 29" fill="none" xmlns="http://www.w3.org/2000/svg">
<g clip-path="url(#clip0_47_2134)">
<path d="M0.353868 28.646C0.826326 29.1184 1.58999 29.1184 2.06245 28.646L3.36383 27.3446L5.44941 25.259L8.81583 28.6254C9.10703 28.919 9.53237 29.0399 9.93233 28.9517C10.3347 28.8622 10.6646 28.5735 10.806 28.1844L14.7487 17.3468C15.0726 16.4551 14.8575 15.4848 14.1857 14.813C13.5162 14.1423 12.5472 13.926 11.653 14.2523L0.81666 18.1939C0.428784 18.334 0.138785 18.6651 0.0493678 19.0675C-0.0388405 19.4711 0.0819928 19.8928 0.375618 20.184L3.74203 23.5504L1.65645 25.636L0.355076 26.9374C-0.117382 27.4098 -0.11859 28.1735 0.353868 28.646ZM18.1152 18.1298C17.859 17.5124 18.1514 16.8055 18.7677 16.5493C23.5974 14.5677 22.1389 7.23671 16.9165 7.25C14.9517 7.25 13.1972 8.42329 12.4469 10.2394C12.1919 10.8581 11.4838 11.1493 10.8688 10.8943C10.2513 10.6394 9.95891 9.93371 10.2139 9.31625C11.3388 6.59267 13.9694 4.83333 16.9165 4.83333C24.784 4.87442 26.9457 15.7446 19.6945 18.7823C19.5434 18.8452 19.3863 18.8742 19.2317 18.8742C18.758 18.8742 18.3085 18.595 18.1152 18.1298ZM15.7082 22.9583C15.7082 22.2901 16.2495 21.75 16.9165 21.75C29.7103 21.2957 29.7079 2.86858 16.9165 2.41667C11.5865 2.41667 7.24983 6.75338 7.24983 12.0833C7.24983 12.7515 6.7097 13.2917 6.04149 13.2917C5.37328 13.2917 4.83316 12.7515 4.83316 12.0833C4.83316 5.42058 10.2537 0 16.9165 0C32.9245 0.607792 32.9209 23.5613 16.9165 24.1667C16.2495 24.1667 15.7082 23.6265 15.7082 22.9583Z" fill="#DDBDA9"/>
</g>
<defs>
<clipPath id="clip0_47_2134">
<rect width="29" height="29" fill="white"/>
</clipPath>
</defs>
</svg>
