<svg width="25" height="18" viewBox="0 0 25 18" fill="none" xmlns="http://www.w3.org/2000/svg">
<path d="M23.4375 7.29199H1.5625C0.699561 7.29199 0 7.99155 0 8.85449C0 9.71743 0.699561 10.417 1.5625 10.417H23.4375C24.3004 10.417 25 9.71743 25 8.85449C25 7.99155 24.3004 7.29199 23.4375 7.29199Z" fill="#EFEFEF"/>
<path d="M1.5625 3.125H23.4375C24.3004 3.125 25 2.42544 25 1.5625C25 0.69956 24.3004 0 23.4375 0H1.5625C0.699561 0 0 0.69956 0 1.5625C0 2.42544 0.699561 3.125 1.5625 3.125Z" fill="#EFEFEF"/>
<path d="M23.4375 14.583H1.5625C0.699561 14.583 0 15.2826 0 16.1455C0 17.0084 0.699561 17.708 1.5625 17.708H23.4375C24.3004 17.708 25 17.0084 25 16.1455C25 15.2826 24.3004 14.583 23.4375 14.583Z" fill="#EFEFEF"/>
</svg>
