<svg width="20" height="20" viewBox="0 0 20 20" fill="none" xmlns="http://www.w3.org/2000/svg">
<g clip-path="url(#clip0_161_10)">
<path d="M0 15.832C0.00390625 18.1328 1.86719 19.9961 4.16797 20H15.8359C18.1367 19.9961 20 18.1328 20.0039 15.832V8.33203H0V15.832ZM14.168 12.082C14.8594 12.082 15.418 12.6406 15.418 13.332C15.418 14.0234 14.8594 14.582 14.168 14.582C13.4766 14.582 12.918 14.0234 12.918 13.332C12.918 12.6406 13.4766 12.082 14.168 12.082ZM10 12.082C10.6914 12.082 11.25 12.6406 11.25 13.332C11.25 14.0234 10.6914 14.582 10 14.582C9.30859 14.582 8.75 14.0234 8.75 13.332C8.75 12.6406 9.30859 12.082 10 12.082ZM5.83203 12.082C6.52344 12.082 7.08203 12.6406 7.08203 13.332C7.08203 14.0234 6.52344 14.582 5.83203 14.582C5.14062 14.582 4.58203 14.0234 4.58203 13.332C4.58203 12.6406 5.14453 12.082 5.83203 12.082Z" fill="#5C6D98"/>
<path d="M15.832 1.66797H15V0.832031C15 0.375 14.625 0 14.168 0C13.707 0 13.3359 0.375 13.3359 0.832031V1.66406H6.66797V0.832031C6.66797 0.371094 6.29297 0 5.83594 0C5.37891 0 5 0.375 5 0.832031V1.66406H4.16797C1.86719 1.66797 0.00390625 3.53516 0 5.83203V6.66406H20V5.83203C19.9961 3.53516 18.1328 1.66797 15.832 1.66797Z" fill="#5C6D98"/>
</g>
<defs>
<clipPath id="clip0_161_10">
<rect width="20" height="20" fill="white"/>
</clipPath>
</defs>
</svg>
