<svg width="25" height="25" viewBox="0 0 25 25" fill="none" xmlns="http://www.w3.org/2000/svg">
<g clip-path="url(#clip0_141_781)">
<path d="M25 12.5C25 13.0762 24.5312 13.54 23.96 13.54C23.3838 13.54 22.9199 13.0713 22.9199 12.5C22.9102 6.74805 18.252 2.08984 12.5 2.08496C11.9238 2.08496 11.46 1.61621 11.46 1.04492C11.46 0.473633 11.9238 0 12.5 0C19.3994 0.00976562 24.9902 5.60059 25 12.5ZM16.665 13.54C17.2412 13.54 17.7051 13.0713 17.7051 12.5C17.7051 11.9287 17.2363 11.46 16.665 11.46H14.292C14.1113 11.1475 13.8525 10.8887 13.54 10.708V7.29492C13.54 6.71875 13.0713 6.25488 12.5 6.25488C11.9238 6.25488 11.46 6.72363 11.46 7.29492V10.708C10.4639 11.2793 10.1221 12.5488 10.6934 13.54C11.2646 14.5361 12.5342 14.8779 13.5303 14.3018C13.8477 14.1211 14.1113 13.8574 14.292 13.54H16.665ZM1.9043 7.06543C1.32812 7.06543 0.864258 7.53418 0.864258 8.10547C0.864258 8.67676 1.33301 9.14551 1.9043 9.14551C2.47559 9.14551 2.94434 8.67676 2.94434 8.10547C2.94434 7.53418 2.48047 7.06543 1.9043 7.06543ZM2.08496 12.5C2.08496 11.9238 1.61621 11.46 1.04492 11.46C0.473633 11.46 0 11.9238 0 12.5C0 13.0762 0.46875 13.54 1.04004 13.54C1.61133 13.54 2.08496 13.0762 2.08496 12.5ZM12.5 22.915C11.9238 22.915 11.46 23.3838 11.46 23.9551C11.46 24.5264 11.9238 25 12.5 25C13.0762 25 13.54 24.5312 13.54 23.96C13.54 23.3887 13.0762 22.915 12.5 22.915ZM4.39453 3.33984C3.81836 3.33984 3.35449 3.80859 3.35449 4.37988C3.35449 4.95117 3.82324 5.41992 4.39453 5.41992C4.96582 5.41992 5.43457 4.95117 5.43457 4.37988C5.43457 3.80859 4.9707 3.33984 4.39453 3.33984ZM8.10547 0.874023C7.5293 0.874023 7.06543 1.34277 7.06543 1.91406C7.06543 2.48535 7.53418 2.9541 8.10547 2.9541C8.68164 2.9541 9.14551 2.48535 9.14551 1.91406C9.14551 1.34277 8.67676 0.874023 8.10547 0.874023ZM1.9043 15.8496C1.32812 15.8496 0.864258 16.3184 0.864258 16.8896C0.864258 17.4658 1.33301 17.9297 1.9043 17.9297C2.47559 17.9297 2.94434 17.4609 2.94434 16.8896C2.94434 16.3184 2.48047 15.8496 1.9043 15.8496ZM4.39453 19.5752C3.81836 19.5752 3.35449 20.0439 3.35449 20.6152C3.35449 21.1914 3.82324 21.6553 4.39453 21.6553C4.96582 21.6553 5.43457 21.1865 5.43457 20.6152C5.43945 20.0439 4.9707 19.5752 4.39453 19.5752ZM8.10547 22.041C7.5293 22.041 7.06543 22.5098 7.06543 23.0811C7.06543 23.6572 7.53418 24.1211 8.10547 24.1211C8.68164 24.1211 9.14551 23.6523 9.14551 23.0811C9.14551 22.5049 8.67676 22.041 8.10547 22.041ZM23.0957 15.8496C22.5195 15.8496 22.0557 16.3184 22.0557 16.8896C22.0557 17.4658 22.5244 17.9297 23.0957 17.9297C23.667 17.9297 24.1357 17.4609 24.1357 16.8896C24.1406 16.3184 23.6719 15.8496 23.0957 15.8496ZM20.6055 19.5752C20.0293 19.5752 19.5654 20.0439 19.5654 20.6152C19.5654 21.1914 20.0342 21.6553 20.6055 21.6553C21.1768 21.6553 21.6455 21.1865 21.6455 20.6152C21.6455 20.0439 21.1768 19.5752 20.6055 19.5752ZM16.8945 22.041C16.3184 22.041 15.8545 22.5098 15.8545 23.0811C15.8545 23.6572 16.3232 24.1211 16.8945 24.1211C17.4658 24.1211 17.9346 23.6523 17.9346 23.0811C17.9395 22.5049 17.4707 22.041 16.8945 22.041Z" fill="#D3AD96"/>
</g>
<defs>
<clipPath id="clip0_141_781">
<rect width="25" height="25" fill="white"/>
</clipPath>
</defs>
</svg>
