<svg width="25" height="25" viewBox="0 0 25 25" fill="none" xmlns="http://www.w3.org/2000/svg">
<g clip-path="url(#clip0_41_374)">
<path d="M8.22266 16.7778C7.6123 16.1675 7.6123 15.1763 8.22266 14.5708C8.83301 13.9604 9.81934 13.9604 10.4297 14.5708C11.8115 15.9526 14.2236 15.9526 15.6006 14.5708L20.7959 9.37549C22.2217 7.94971 22.2217 5.63037 20.7959 4.20459C19.3701 2.77881 17.0508 2.77881 15.625 4.20459C15.0147 4.81494 14.0283 4.81494 13.418 4.20459C12.8076 3.59424 12.8076 2.60303 13.418 1.99756C16.0596 -0.648926 20.3662 -0.648926 23.0078 1.99756C25.6543 4.64404 25.6543 8.9458 23.0078 11.5874L17.8174 16.7778C16.4941 18.1011 14.7559 18.7603 13.0225 18.7603C11.2891 18.7603 9.5459 18.0962 8.22266 16.7778ZM6.78223 24.9956C8.52051 24.9956 10.2539 24.3364 11.5771 23.0132C12.1875 22.4028 12.1875 21.4116 11.5771 20.8062C10.9668 20.1958 9.98047 20.1958 9.37012 20.8062C7.94434 22.2319 5.62012 22.2319 4.19922 20.8062C2.77344 19.3804 2.77344 17.061 4.19922 15.6353L9.36524 10.4692C10.791 9.04346 13.1152 9.04346 14.5361 10.4692C15.1465 11.0796 16.1328 11.0796 16.7432 10.4692C17.3535 9.85889 17.3535 8.86767 16.7432 8.26221C14.0967 5.61572 9.79492 5.61572 7.15332 8.26221L1.9873 13.4233C-0.65918 16.0698 -0.65918 20.3716 1.9873 23.0132C3.31055 24.3364 5.04395 24.9956 6.78223 24.9956Z" fill="#5C6D98"/>
</g>
<defs>
<clipPath id="clip0_41_374">
<rect width="25" height="25" fill="white"/>
</clipPath>
</defs>
</svg>
