<svg width="40" height="40" viewBox="0 0 40 40" fill="none" xmlns="http://www.w3.org/2000/svg">
<g clip-path="url(#clip0_0_185)">
<path d="M14.0547 5.03896C11.4218 5.45302 9.94529 6.35146 9.10935 8.04677C8.31247 9.67958 8.3281 10.9843 9.17185 12.664L9.59372 13.4999L8.90622 14.1796L8.22654 14.8515L7.91404 14.203C7.48435 13.3202 7.10935 12.8436 6.06247 11.8593C5.08591 10.9452 4.85935 10.8358 4.28904 11.0077C3.94529 11.1093 3.68747 11.3983 2.96872 12.4999C1.78122 14.3124 1.31247 15.789 1.44529 17.2577C1.64841 19.4686 2.83591 20.9608 4.77341 21.4608L5.3281 21.6015L5.28122 21.9452C5.25779 22.1327 5.23435 22.6561 5.23435 23.1015C5.23435 23.8515 5.22654 23.9218 5.10154 23.8671C4.07029 23.4452 3.36716 23.3671 1.81247 23.5077C0.757785 23.6015 0.49216 23.6952 0.218723 24.078C0.0624729 24.3046 0.0390354 24.414 0.0546604 25.039C0.0780979 26.3671 0.46091 28.2343 0.906223 29.203C1.4531 30.3905 2.1406 31.1405 3.15622 31.6405C4.40622 32.2577 5.71872 32.1093 7.03904 31.2186L7.46091 30.9296L7.65622 31.1874C7.7656 31.328 8.07029 31.6952 8.33591 32.0077C8.60935 32.3202 8.8281 32.5858 8.8281 32.6015C8.8281 32.6171 8.60935 32.7421 8.34372 32.8749C7.54685 33.2655 6.98435 33.789 6.11716 34.9218C5.24216 36.0702 5.08591 36.414 5.22654 36.8749C5.33591 37.2186 5.42966 37.3202 6.24997 38.0468C7.39841 39.0624 8.07029 39.4921 8.99216 39.8046C10.625 40.3671 12.2734 40.0077 13.4297 38.8436C14.0781 38.203 14.4531 37.4843 14.6875 36.4452L14.8593 35.703H15.3437C15.8984 35.703 16.2422 35.5311 16.4843 35.1405C16.789 34.6405 16.6172 33.8983 16.1328 33.5936C15.9922 33.5077 15.6093 33.3983 15.2734 33.3515C12.1328 32.914 9.28904 30.3827 8.17185 27.0311C7.74997 25.7655 7.64841 25.164 7.60154 23.7108C7.53904 21.7265 7.82029 20.3124 8.59372 18.6874C9.62497 16.5311 11.164 14.9765 13.3593 13.8671C13.9218 13.5858 14.9453 12.539 15.375 11.8046C15.7734 11.1249 16.1172 10.2968 16.2578 9.64834C16.375 9.11709 16.3828 7.77333 16.2734 6.53896C16.1875 5.61708 16.1015 5.42177 15.625 5.09365C15.3281 4.89833 15.0547 4.88271 14.0547 5.03896Z" fill="#5C6389"/>
<path d="M24.3749 5.06993C23.7499 5.39806 23.6327 5.87462 23.6327 8.08556C23.6327 9.59337 23.7499 10.1559 24.2655 11.1949C25.0312 12.7027 25.7109 13.3902 27.289 14.2496C28.0624 14.6793 28.9687 15.3824 29.6405 16.0934C31.6874 18.2731 32.6718 21.2887 32.3515 24.3981C32.078 27.0231 31.1327 29.1481 29.4765 30.8668C28.164 32.234 26.6405 33.0387 24.8437 33.3277C23.9296 33.4762 23.6874 33.609 23.4452 34.0856C23.2109 34.5699 23.2655 34.9059 23.664 35.3356C23.9452 35.6402 23.9921 35.6559 24.539 35.6949L25.1093 35.7418L25.2734 36.4684C25.8202 38.8199 27.578 40.2106 29.7812 40.0465C31.1327 39.9527 32.2343 39.3746 33.8827 37.9137C34.6171 37.2574 34.7655 37.0231 34.7655 36.5621C34.7655 36.1559 34.7265 36.0934 33.8984 34.9996C32.9296 33.7262 32.2109 33.0856 31.3437 32.7418L31.0937 32.6324L31.5077 32.1559C31.828 31.7809 32.3202 31.1715 32.4687 30.9527C32.4843 30.9371 32.6405 31.0231 32.828 31.1559C34.6015 32.3746 36.3984 32.3043 37.8749 30.9684C39.0312 29.9215 39.664 28.2418 39.9296 25.4996C40.0155 24.6012 40.0155 24.5309 39.8671 24.2496C39.539 23.609 39.0624 23.484 36.9921 23.4762C35.8905 23.4762 35.789 23.4918 35.3124 23.6871C35.039 23.8043 34.8046 23.8902 34.7968 23.8824C34.789 23.8746 34.7655 23.359 34.7343 22.7262L34.6874 21.5934L35.0937 21.4918C36.3671 21.1793 37.4921 20.2965 38.0077 19.2027C38.414 18.359 38.539 17.6481 38.4921 16.5231C38.4296 15.0543 38.0702 14.1246 36.828 12.2496C36.2734 11.4215 36.1093 11.234 35.8359 11.1012C35.1327 10.7652 34.7812 10.9371 33.4921 12.2574C32.5937 13.1793 32.4765 13.3356 32.1327 14.0543C31.9296 14.484 31.7421 14.8277 31.7187 14.8199C31.6952 14.8121 31.3905 14.4996 31.039 14.1324L30.3984 13.4684L30.7812 12.6871C31.2655 11.7262 31.4062 11.1793 31.4062 10.2731C31.4062 8.91368 30.9218 7.78868 29.8827 6.75743C28.8984 5.76525 27.8515 5.32775 25.8593 5.03868C24.8046 4.89025 24.703 4.89025 24.3749 5.06993Z" fill="#5C6389"/>
<path d="M19.5859 14.4838C19.4219 14.5463 19.2266 14.6479 19.1484 14.7182C19.0703 14.7885 18.5781 15.7417 18.0469 16.8354C17.5 17.9604 17.0313 18.8432 16.9609 18.8588C16.8906 18.8823 15.9219 19.0229 14.8047 19.1792C13.4375 19.3745 12.6641 19.5229 12.4375 19.6245C11.9063 19.8745 11.6641 20.4995 11.8828 21.0698C11.9219 21.187 12.6953 22.0073 13.5938 22.8901L15.2344 24.4917L14.8438 26.7182C14.4063 29.2182 14.4063 29.3354 14.8828 29.7573C15.1719 30.0073 15.5781 30.1245 15.8906 30.0463C16 30.0229 16.9531 29.5385 18.0156 28.9838C19.0781 28.4213 19.9688 27.9682 20.0078 27.9682C20.0391 27.9682 20.9375 28.4292 22 28.9838C23.0625 29.5463 24.0156 30.0229 24.1172 30.0463C24.4219 30.1245 24.8359 30.0073 25.1172 29.7573C25.5938 29.3354 25.5938 29.2182 25.1563 26.7182L24.7656 24.4917L26.4063 22.8901C27.3047 22.0073 28.0703 21.187 28.1172 21.0698C28.3359 20.4995 28.0938 19.8745 27.5625 19.6245C27.3359 19.5151 26.5391 19.3667 25.0781 19.1557C23.8984 18.9838 22.9219 18.8198 22.9063 18.7807C22.8906 18.7417 22.4375 17.812 21.8906 16.7182C21.0781 15.0932 20.8516 14.7026 20.6641 14.5932C20.3203 14.4057 19.9219 14.3588 19.5859 14.4838Z" fill="#5C6389"/>
</g>
<defs>
<clipPath id="clip0_0_185">
<rect width="40" height="40" fill="white"/>
</clipPath>
</defs>
</svg>
