<svg width="18" height="18" viewBox="0 0 18 18" fill="none" xmlns="http://www.w3.org/2000/svg">
<g clip-path="url(#clip0_1640_1462)">
<path d="M6.32456 2.26751C5.13979 2.45383 4.47534 2.85813 4.09917 3.62102C3.74058 4.35579 3.74761 4.9429 4.1273 5.69876L4.31714 6.07493L4.00776 6.38079L3.7019 6.68313L3.56128 6.39134C3.36792 5.99407 3.19917 5.77962 2.72808 5.33665C2.28862 4.92532 2.18667 4.8761 1.93003 4.95345C1.77534 4.99915 1.65933 5.12923 1.33589 5.62493C0.801514 6.44055 0.590576 7.10501 0.650342 7.76595C0.741748 8.76087 1.27612 9.43235 2.148 9.65735L2.39761 9.72063L2.37651 9.87532C2.36597 9.9597 2.35542 10.1952 2.35542 10.3956C2.35542 10.7331 2.3519 10.7648 2.29565 10.7402C1.83159 10.5503 1.51519 10.5152 0.815576 10.5784C0.340967 10.6206 0.221436 10.6628 0.0983887 10.8351C0.0280762 10.937 0.0175293 10.9863 0.0245605 11.2675C0.0351074 11.8652 0.207373 12.7054 0.407764 13.1413C0.653857 13.6757 0.963232 14.0132 1.42026 14.2382C1.98276 14.5159 2.57339 14.4491 3.16753 14.0484L3.35737 13.9183L3.44526 14.0343C3.49448 14.0976 3.63159 14.2628 3.75112 14.4034C3.87417 14.5441 3.97261 14.6636 3.97261 14.6706C3.97261 14.6777 3.87417 14.7339 3.75464 14.7937C3.39604 14.9695 3.14292 15.205 2.75269 15.7148C2.35894 16.2316 2.28862 16.3863 2.3519 16.5937C2.40112 16.7484 2.44331 16.7941 2.81245 17.121C3.32925 17.5781 3.63159 17.7714 4.04644 17.912C4.7812 18.1652 5.523 18.0034 6.04331 17.4796C6.33511 17.1913 6.50386 16.8679 6.60933 16.4003L6.68667 16.0663H6.90464C7.15425 16.0663 7.30894 15.989 7.41792 15.8132C7.55503 15.5882 7.47769 15.2542 7.25972 15.1171C7.19644 15.0784 7.02417 15.0292 6.873 15.0081C5.45972 14.8113 4.18003 13.6722 3.67729 12.164C3.48745 11.5945 3.44175 11.3238 3.42065 10.6699C3.39253 9.77688 3.51909 9.14055 3.86714 8.4093C4.3312 7.43899 5.02378 6.73938 6.01167 6.24016C6.26479 6.1136 6.72534 5.64251 6.9187 5.31204C7.098 5.00618 7.25269 4.63352 7.31597 4.34173C7.3687 4.10266 7.37222 3.49798 7.323 2.94251C7.28433 2.52766 7.24565 2.43977 7.0312 2.29212C6.89761 2.20423 6.77456 2.19719 6.32456 2.26751Z" fill="white"/>
<path d="M10.9687 2.2814C10.6875 2.42905 10.6348 2.64351 10.6348 3.63843C10.6348 4.31694 10.6875 4.57007 10.9195 5.03765C11.264 5.71616 11.5699 6.02554 12.2801 6.41226C12.6281 6.60562 13.0359 6.92202 13.3383 7.24194C14.2594 8.2228 14.7023 9.57983 14.5582 10.9791C14.4351 12.1603 14.0098 13.1166 13.2644 13.89C12.6738 14.5052 11.9883 14.8673 11.1797 14.9974C10.7683 15.0642 10.6594 15.124 10.5504 15.3384C10.4449 15.5564 10.4695 15.7076 10.6488 15.9009C10.7754 16.038 10.7965 16.0451 11.0426 16.0626L11.2992 16.0837L11.373 16.4107C11.6191 17.4689 12.4101 18.0947 13.4015 18.0209C14.0098 17.9787 14.5055 17.7185 15.2473 17.0611C15.5777 16.7658 15.6445 16.6603 15.6445 16.4529C15.6445 16.2701 15.6269 16.2419 15.2543 15.7498C14.8183 15.1767 14.4949 14.8884 14.1047 14.7337L13.9922 14.6845L14.1785 14.4701C14.3226 14.3013 14.5441 14.0271 14.6109 13.9287C14.618 13.9216 14.6883 13.9603 14.7726 14.0201C15.5707 14.5685 16.3793 14.5369 17.0437 13.9357C17.564 13.4646 17.8488 12.7087 17.9683 11.4748C18.007 11.0705 18.007 11.0388 17.9402 10.9123C17.7926 10.624 17.5781 10.5677 16.6465 10.5642C16.1508 10.5642 16.1051 10.5712 15.8906 10.6591C15.7676 10.7119 15.6621 10.7505 15.6586 10.747C15.6551 10.7435 15.6445 10.5115 15.6305 10.2267L15.6094 9.71694L15.7922 9.67124C16.3652 9.53062 16.8715 9.13335 17.1035 8.64116C17.2863 8.26148 17.3426 7.94155 17.3215 7.4353C17.2933 6.77437 17.1316 6.35601 16.5726 5.51226C16.323 5.1396 16.2492 5.05523 16.1262 4.99546C15.8098 4.84429 15.6515 4.92163 15.0715 5.51577C14.6672 5.93062 14.6144 6.00093 14.4598 6.32437C14.3683 6.51772 14.284 6.67241 14.2734 6.6689C14.2629 6.66538 14.1258 6.52476 13.9676 6.35952L13.6793 6.06069L13.8515 5.70913C14.0695 5.27671 14.1328 5.03062 14.1328 4.6228C14.1328 4.01108 13.9148 3.50483 13.4473 3.04077C13.0043 2.59429 12.5332 2.39741 11.6367 2.26733C11.1621 2.20054 11.1164 2.20054 10.9687 2.2814Z" fill="white"/>
<path d="M8.81359 6.51771C8.73976 6.54583 8.65187 6.59154 8.61671 6.62318C8.58156 6.65482 8.36007 7.08372 8.12101 7.57591C7.87492 8.08216 7.66398 8.47943 7.63234 8.48646C7.6007 8.497 7.16476 8.56029 6.66202 8.6306C6.04679 8.71849 5.69874 8.78529 5.59679 8.83099C5.35773 8.94349 5.24874 9.22474 5.34718 9.48138C5.36476 9.53411 5.71281 9.90325 6.1171 10.3005L6.85538 11.0212L6.6796 12.0232C6.48273 13.1482 6.48273 13.2009 6.69718 13.3908C6.82726 13.5033 7.01007 13.556 7.1507 13.5208C7.19992 13.5103 7.62882 13.2923 8.10695 13.0427C8.58507 12.7896 8.98585 12.5857 9.00343 12.5857C9.01749 12.5857 9.42179 12.7931 9.89992 13.0427C10.378 13.2958 10.8069 13.5103 10.8526 13.5208C10.9898 13.556 11.1761 13.5033 11.3026 13.3908C11.5171 13.2009 11.5171 13.1482 11.3202 12.0232L11.1444 11.0212L11.8827 10.3005C12.287 9.90325 12.6316 9.53411 12.6526 9.48138C12.7511 9.22474 12.6421 8.94349 12.403 8.83099C12.3011 8.78177 11.9425 8.71497 11.2851 8.62005C10.7542 8.54271 10.3148 8.46888 10.3077 8.4513C10.3007 8.43372 10.0968 8.01536 9.8507 7.52318C9.48507 6.79193 9.38312 6.61615 9.29874 6.56693C9.14406 6.48255 8.96476 6.46146 8.81359 6.51771Z" fill="white"/>
</g>
<defs>
<clipPath id="clip0_1640_1462">
<rect width="18" height="18" fill="white"/>
</clipPath>
</defs>
</svg>
