<svg width="22" height="22" viewBox="0 0 22 22" fill="none" xmlns="http://www.w3.org/2000/svg">
<g clip-path="url(#clip0_161_15)">
<path d="M11.0016 14.852C13.0256 14.852 14.6663 13.1274 14.6663 11C14.6663 8.87261 13.0256 7.14802 11.0016 7.14802C8.97765 7.14802 7.33691 8.87261 7.33691 11C7.33691 13.1274 8.97765 14.852 11.0016 14.852Z" fill="#5C6D98"/>
<path d="M21.3298 8.51631C19.9077 6.08229 16.6727 2 11.0016 2C5.33056 2 2.09549 6.08229 0.673433 8.51631C-0.224483 10.0381 -0.224483 11.9664 0.673433 13.4882C2.09549 15.9177 5.33056 20 11.0016 20C16.6727 20 19.9077 15.9177 21.3298 13.4837C22.2234 11.9619 22.2234 10.0381 21.3298 8.51631ZM11.0016 16.7802C7.96416 16.7802 5.50241 14.1927 5.50241 11C5.50241 7.80733 7.96416 5.21977 11.0016 5.21977C14.0391 5.21977 16.5008 7.80733 16.5008 11C16.4965 14.1882 14.0348 16.7757 11.0016 16.7802Z" fill="#5C6D98"/>
</g>
<defs>
<clipPath id="clip0_161_15">
<rect width="22" height="22" fill="white"/>
</clipPath>
</defs>
</svg>
