<svg width="28" height="29" viewBox="0 0 28 29" fill="none" xmlns="http://www.w3.org/2000/svg">
<g clip-path="url(#clip0_1497_4853)">
<path d="M0.341706 28.1582C0.797873 28.6143 1.53521 28.6143 1.99137 28.1582L3.24787 26.9017L5.26154 24.888L8.51187 28.1383C8.79304 28.4218 9.20371 28.5385 9.58987 28.4533C9.97837 28.367 10.2969 28.0882 10.4334 27.7125L14.2402 17.2487C14.5529 16.3877 14.3452 15.4508 13.6965 14.8022C13.0502 14.1547 12.1145 13.9458 11.2512 14.2608L0.788539 18.0665C0.414039 18.2018 0.134039 18.5215 0.047706 18.91C-0.0374606 19.2997 0.079206 19.7068 0.362706 19.988L3.61304 23.2383L1.59937 25.252L0.342873 26.5085C-0.113294 26.9647 -0.114461 27.702 0.341706 28.1582ZM17.4905 18.0047C17.2432 17.4085 17.5255 16.726 18.1205 16.4787C22.7837 14.5653 21.3755 7.48717 16.3332 7.5C14.4362 7.5 12.7422 8.63283 12.0177 10.3863C11.7715 10.9837 11.0879 11.2648 10.494 11.0187C9.89787 10.7725 9.61554 10.0912 9.86171 9.495C10.9479 6.86533 13.4877 5.16667 16.3332 5.16667C23.9294 5.20633 26.0165 15.7017 19.0154 18.6347C18.8695 18.6953 18.7179 18.7233 18.5685 18.7233C18.1112 18.7233 17.6772 18.4538 17.4905 18.0047ZM15.1665 22.6667C15.1665 22.0215 15.6892 21.5 16.3332 21.5C28.6859 21.0613 28.6835 3.26967 16.3332 2.83333C11.187 2.83333 6.99987 7.0205 6.99987 12.1667C6.99987 12.8118 6.47837 13.3333 5.83321 13.3333C5.18804 13.3333 4.66654 12.8118 4.66654 12.1667C4.66654 5.73367 9.90021 0.5 16.3332 0.5C31.7892 1.08683 31.7857 23.2488 16.3332 23.8333C15.6892 23.8333 15.1665 23.3118 15.1665 22.6667Z" fill="#DDBDA9"/>
</g>
<defs>
<clipPath id="clip0_1497_4853">
<rect width="28" height="28" fill="white" transform="translate(0 0.5)"/>
</clipPath>
</defs>
</svg>
