<svg width="24" height="24" viewBox="0 0 24 24" fill="none" xmlns="http://www.w3.org/2000/svg">
<g clip-path="url(#clip0_38_252)">
<path d="M16.8 2.49994L18 0.499938C18.3 -6.16312e-05 18.9 -0.100062 19.4 0.199938C19.9 0.399938 20 0.999938 19.7 1.49994L18.5 3.49994C18.3 3.79994 18 3.99994 17.6 3.99994C17.4 3.99994 17.2 3.99994 17.1 3.89994C16.6 3.59994 16.5 2.89994 16.8 2.49994ZM5.39996 3.49994C5.59996 3.79994 5.89996 3.99994 6.29996 3.99994C6.49996 3.99994 6.69996 3.99994 6.79996 3.89994C7.29996 3.59994 7.39996 2.99994 7.09996 2.49994L5.89996 0.499938C5.59996 -6.16312e-05 4.99996 -0.200062 4.49996 0.0999384C4.09996 0.399938 3.89996 0.999938 4.19996 1.49994L5.39996 3.49994ZM3.19996 5.69994L1.39996 4.89994C0.899956 4.69994 0.299956 4.89994 0.0999561 5.39994C-0.100044 5.89994 0.0999562 6.49994 0.599956 6.69994L2.39996 7.59994C2.49996 7.69994 2.69996 7.69994 2.79996 7.69994C3.19996 7.69994 3.49996 7.49994 3.69996 7.09994C3.99996 6.59994 3.69996 5.99994 3.19996 5.69994ZM11.9 3.99994C6.39996 4.09994 1.99996 10.0999 4.99996 15.7999C5.49996 16.6999 6.09996 17.3999 6.89996 18.0999C7.19996 18.3999 7.39996 18.6999 7.59996 18.9999H11V13.7999C9.79996 13.3999 8.99996 12.2999 8.99996 10.9999C8.99996 10.3999 9.39996 9.99994 9.99996 9.99994C10.6 9.99994 11 10.3999 11 10.9999C11 11.5999 11.4 11.9999 12 11.9999C12.6 11.9999 13 11.5999 13 10.9999C13 10.3999 13.4 9.99994 14 9.99994C14.6 9.99994 15 10.3999 15 10.9999C15 12.2999 14.2 13.3999 13 13.7999V18.9999H16.5C16.7 18.5999 17 18.1999 17.4 17.8999C18.1 17.3999 18.7 16.6999 19.1 15.9999C20.8 12.4999 20.1 8.69994 17.7 6.29994C16.1 4.79994 14 3.99994 11.9 3.99994ZM7.99996 21.2999C7.89996 22.6999 8.99996 23.9999 10.5 23.9999H13.5C14.9 23.9999 16 22.8999 16 21.4999V20.9999H7.99996C7.99996 21.0999 7.99996 21.1999 7.99996 21.2999ZM23.9 5.29994C23.7 4.79994 23.1 4.59994 22.6 4.79994L20.7 5.69994C20.2 5.89994 20 6.49994 20.2 6.99994C20.4 7.39994 20.7 7.59994 21.1 7.59994C21.2 7.59994 21.4 7.59994 21.5 7.49994L23.4 6.59994C23.9 6.39994 24.1 5.79994 23.9 5.29994Z" fill="#2D3E6D"/>
</g>
<defs>
<clipPath id="clip0_38_252">
<rect width="24" height="24" fill="white"/>
</clipPath>
</defs>
</svg>
