<svg width="32" height="26" viewBox="0 0 32 26" fill="none" xmlns="http://www.w3.org/2000/svg">
<path d="M4.44921 24.5514C3.85112 23.9533 3.85112 22.9836 4.44921 22.3855L25.3861 1.44869C25.9842 0.850598 26.9539 0.850598 27.552 1.44869C28.15 2.04678 28.15 3.01648 27.552 3.61457L6.61509 24.5514C6.017 25.1495 5.0473 25.1495 4.44921 24.5514Z" fill="#FDFDFD"/>
<path d="M27.5513 24.5513C28.1494 23.9532 28.1494 22.9835 27.5513 22.3854L6.61445 1.44857C6.01636 0.850477 5.04666 0.850477 4.44857 1.44857C3.85048 2.04666 3.85048 3.01636 4.44857 3.61445L25.3854 24.5513C25.9835 25.1494 26.9532 25.1494 27.5513 24.5513Z" fill="#FDFDFD"/>
</svg>
