<svg width="13" height="13" viewBox="0 0 13 13" fill="none" xmlns="http://www.w3.org/2000/svg">
<path d="M6.49999 0C3.50897 0.00253906 1.08671 2.42734 1.08417 5.41582C1.08417 8.27734 5.63417 12.2053 6.1496 12.6445L6.49999 12.9391L6.85038 12.6445C7.36835 12.2053 11.9183 8.27734 11.9183 5.41582C11.9133 2.42734 9.491 0.00253906 6.49999 0ZM6.49999 8.125C5.00448 8.125 3.79081 6.91133 3.79081 5.41582C3.79081 3.92031 5.00448 2.70918 6.49999 2.70918C7.9955 2.70918 9.20917 3.92285 9.20917 5.41836C9.20663 6.91133 7.9955 8.12246 6.49999 8.125Z" fill="#5F78AA"/>
<path d="M6.5 7.04077C7.39746 7.04077 8.125 6.31323 8.125 5.41577C8.125 4.51831 7.39746 3.79077 6.5 3.79077C5.60254 3.79077 4.875 4.51831 4.875 5.41577C4.875 6.31323 5.60254 7.04077 6.5 7.04077Z" fill="#5F78AA"/>
</svg>
