<svg width="23" height="24" viewBox="0 0 23 24" fill="none" xmlns="http://www.w3.org/2000/svg">
<g clip-path="url(#clip0_46_666)">
<path d="M22.5788 21.0528L18.1268 16.6008C21.4557 12.1489 20.5482 5.84154 16.0962 2.50819C11.6442 -0.825164 5.34131 0.0867912 2.00791 4.53426C-1.32548 8.98172 -0.413516 15.298 4.0385 18.6269C7.61449 21.3043 12.5247 21.3043 16.1007 18.6269L20.5527 23.0788C21.1143 23.6404 22.0218 23.6404 22.5788 23.0788C23.1404 22.5218 23.1404 21.6143 22.5788 21.0528ZM10.1033 17.7688C6.14546 17.7688 2.93785 14.5613 2.93785 10.6035C2.93785 6.64568 6.14995 3.44261 10.1033 3.44261C14.0567 3.44261 17.2688 6.65017 17.2688 10.608C17.2643 14.5613 14.0612 17.7643 10.1033 17.7688Z" fill="#D3A78F"/>
</g>
<defs>
<clipPath id="clip0_46_666">
<rect width="23" height="23" fill="white" transform="translate(0 0.5)"/>
</clipPath>
</defs>
</svg>
