<svg width="26" height="26" viewBox="0 0 26 26" fill="none" xmlns="http://www.w3.org/2000/svg">
<g clip-path="url(#clip0_41_363)">
<path fill-rule="evenodd" clip-rule="evenodd" d="M13 0C5.81953 0 0 5.81953 0 13C0 20.1805 5.81953 26 13 26C20.1805 26 26 20.1805 26 13C26 5.81953 20.1805 0 13 0ZM19.0277 8.84102C18.8348 10.8977 17.9867 15.8844 17.5551 18.1848C17.3723 19.1598 17.0117 19.4848 16.6664 19.5152C15.9098 19.5863 15.3359 19.0176 14.6047 18.5352C13.4621 17.7836 12.8121 17.3164 11.7051 16.5852C10.4203 15.7371 11.2531 15.275 11.9844 14.5133C12.1773 14.3152 15.5035 11.2887 15.5645 11.0145C15.5695 10.9789 15.5797 10.852 15.5035 10.7859C15.4273 10.7199 15.3156 10.7402 15.2344 10.7605C15.1176 10.7859 13.2895 11.9945 9.75 14.3863C9.23203 14.7418 8.75977 14.9145 8.33828 14.9094C7.87617 14.8992 6.98242 14.6453 6.31719 14.432C5.50469 14.168 4.85469 14.0258 4.91055 13.5789C4.94102 13.3453 5.26094 13.1066 5.87539 12.8629C9.66367 11.2125 12.1926 10.1207 13.457 9.59766C17.0676 8.09453 17.8191 7.83555 18.3066 7.82539C18.9262 7.81523 19.0734 8.32305 19.0277 8.84102Z" fill="#5C6D98"/>
</g>
<defs>
<clipPath id="clip0_41_363">
<rect width="26" height="26" fill="white"/>
</clipPath>
</defs>
</svg>
