<svg width="26" height="26" viewBox="0 0 26 26" fill="none" xmlns="http://www.w3.org/2000/svg">
<g clip-path="url(#clip0_41_366)">
<path fill-rule="evenodd" clip-rule="evenodd" d="M22.166 3.77813C19.7336 1.3457 16.4988 0 13.0559 0C5.95157 0 0.172662 5.77891 0.167584 12.8832C0.167584 15.1531 0.761725 17.3723 1.88907 19.3223L0.0609436 26L6.89102 24.2074C8.77501 25.2332 10.8926 25.7766 13.0457 25.7766H13.0508C20.15 25.7766 25.934 19.9977 25.934 12.8934C25.9391 9.45039 24.5984 6.21055 22.166 3.77813ZM13.0559 23.598C11.1313 23.598 9.24727 23.0801 7.60196 22.1051L7.21094 21.8715L3.1586 22.9328L4.24024 18.982L3.98633 18.5758C2.91485 16.8695 2.3461 14.8992 2.35118 12.8781C2.35118 6.97227 7.16016 2.16836 13.066 2.16836C15.925 2.16836 18.6164 3.28555 20.6375 5.30664C22.6586 7.33281 23.7707 10.0191 23.7707 12.8832C23.7606 18.7992 18.9566 23.598 13.0559 23.598ZM18.9262 15.5797C18.6063 15.4172 17.0219 14.6402 16.7273 14.5336C16.4328 14.427 16.2195 14.3711 16.0012 14.6961C15.7828 15.0211 15.1684 15.7422 14.9805 15.9605C14.7926 16.1738 14.6047 16.2043 14.2848 16.0418C13.9648 15.8793 12.9238 15.5391 11.6949 14.4422C10.7402 13.5891 10.0902 12.5328 9.90235 12.2129C9.71446 11.893 9.88204 11.7152 10.0445 11.5578C10.1918 11.4156 10.3645 11.182 10.527 10.9941C10.6895 10.8062 10.7402 10.6742 10.852 10.4559C10.9586 10.2426 10.9078 10.0547 10.8266 9.89219C10.7453 9.72969 10.1004 8.14531 9.83633 7.50039C9.57735 6.8707 9.30821 6.95703 9.11016 6.94688C8.92227 6.93672 8.70899 6.93672 8.49063 6.93672C8.27735 6.93672 7.92696 7.01797 7.63243 7.33789C7.3379 7.66289 6.50508 8.43984 6.50508 10.0242C6.50508 11.6086 7.65782 13.1422 7.82032 13.3555C7.98282 13.5688 10.0902 16.8238 13.3199 18.2152C14.0867 18.5453 14.6859 18.7434 15.1531 18.8957C15.925 19.1395 16.6258 19.1039 17.1793 19.0227C17.7988 18.9312 19.0836 18.2457 19.3527 17.4941C19.6219 16.7426 19.6219 16.0977 19.5406 15.9656C19.4645 15.8234 19.2512 15.7422 18.9262 15.5797Z" fill="#5C6D98"/>
</g>
<defs>
<clipPath id="clip0_41_366">
<rect width="26" height="26" fill="white"/>
</clipPath>
</defs>
</svg>
