<svg width="23" height="23" viewBox="0 0 23 23" fill="none" xmlns="http://www.w3.org/2000/svg">
<g clip-path="url(#clip0_24_572)">
<path d="M22.5788 20.5528L18.1268 16.1008C21.4557 11.6489 20.5482 5.34154 16.0962 2.00819C11.6442 -1.32516 5.34131 -0.413209 2.00791 4.03426C-1.32548 8.48172 -0.413516 14.798 4.0385 18.1269C7.61449 20.8043 12.5247 20.8043 16.1007 18.1269L20.5527 22.5788C21.1143 23.1404 22.0218 23.1404 22.5788 22.5788C23.1404 22.0218 23.1404 21.1143 22.5788 20.5528ZM10.1033 17.2688C6.14546 17.2688 2.93785 14.0613 2.93785 10.1035C2.93785 6.14568 6.14995 2.94261 10.1033 2.94261C14.0567 2.94261 17.2688 6.15017 17.2688 10.108C17.2643 14.0613 14.0612 17.2643 10.1033 17.2688Z" fill="#D3A78F"/>
</g>
<defs>
<clipPath id="clip0_24_572">
<rect width="23" height="23" fill="white"/>
</clipPath>
</defs>
</svg>
