<svg width="24" height="24" viewBox="0 0 24 24" fill="none" xmlns="http://www.w3.org/2000/svg">
<g clip-path="url(#clip0_62_29)">
<path d="M23.2 13.0001C22.6 12.4001 21.8 12.0001 21 12.0001H2V4.50009C2 3.70009 2.4 2.80009 3.1 2.40009C4.2 1.70009 5.5 2.00009 6.2 2.90009L6.5 3.20009L6 6.00009C5.9 6.40009 6 6.70009 6.2 7.00009C6.6 7.70009 7.5 7.80009 8.2 7.40009L11.8 4.70009C12.4 4.30009 12.5 3.50009 12.1 2.90009C11.9 2.50009 11.5 2.30009 11 2.30009L8.1 2.10009L7.9 1.80009C7.2 1.00009 6.3 0.300093 5.2 0.100093C2.4 -0.499907 0 1.70009 0 4.30009C0 4.30009 0 10.0001 0 12.2001C0 12.8001 0 13.3001 0.1 13.9001C0.2 14.7001 0.3 15.8001 0.3 15.8001C0.6 17.8001 1.5 19.6001 2.9 20.8001L2.4 22.7001C2.3 23.2001 2.6 23.8001 3.1 23.9001C3.2 23.9001 3.3 23.9001 3.3 23.9001C3.7 23.9001 4.2 23.6001 4.3 23.1001L4.6 22.0001C5.9 22.7001 7.1 23.0001 8.4 23.0001H15.8C17 23.0001 18.2 22.7001 19.2 22.2001L19.4 23.2001C19.5 23.7001 19.9 24.0001 20.4 24.0001C20.5 24.0001 20.6 24.0001 20.6 24.0001C21.1 23.9001 21.5 23.3001 21.3 22.8001L20.9 21.1001C22.4 19.8001 23.5 18.0001 23.8 15.9001L23.9 15.4001C24.1 14.5001 23.8 13.7001 23.2 13.0001ZM22 15.1001L21.9 15.6001C21.5 18.7001 18.9 21.0001 15.8 21.0001H8.4C5.3 21.0001 2.7 18.7001 2.3 15.6001L2.1 14.0001H21C21.3 14.0001 21.6 14.1001 21.8 14.3001C21.9 14.6001 22 14.8001 22 15.1001Z" fill="#5F78AA"/>
</g>
<defs>
<clipPath id="clip0_62_29">
<rect width="24" height="24" fill="white"/>
</clipPath>
</defs>
</svg>
