<svg width="24" height="24" viewBox="0 0 24 24" fill="none" xmlns="http://www.w3.org/2000/svg">
<path d="M18.9984 2.00146H5.00156C2.24531 2.00146 0 4.24209 0 6.99834V20.9999C0 21.553 0.45 21.9983 0.998437 21.9983C1.54688 21.9983 1.99687 21.553 1.99687 20.9999V18.9983H21.9984V20.9999C21.9984 21.553 22.4438 21.9983 22.9969 21.9983C23.55 21.9983 23.9953 21.553 23.9953 20.9999V6.99834C24 4.24209 21.7547 2.00146 18.9984 2.00146ZM5.00156 3.99834H19.0031C20.6578 3.99834 22.0031 5.34365 22.0031 6.99834V12.9983H20.0016C20.0016 10.7905 18.2062 8.9999 16.0031 8.9999H15C13.8047 8.9999 12.7359 9.5249 12 10.3546C11.2641 9.5249 10.1953 8.9999 9 8.9999H8.00156C5.79375 8.9999 4.00313 10.7952 4.00313 12.9983H2.00156V6.99834C2.00156 5.34365 3.34687 3.99834 5.00156 3.99834ZM12.9984 12.9983C12.9984 11.8968 13.8938 10.9968 15 10.9968H15.9984C17.1 10.9968 18 11.8921 18 12.9983H12.9984ZM6 12.9983C6 11.8968 6.89531 10.9968 8.00156 10.9968H9C10.1016 10.9968 11.0016 11.8921 11.0016 12.9983H6ZM2.00156 17.0015V14.9999H22.0031V17.0015H2.00156Z" fill="#5F78AA"/>
</svg>
