<svg width="24" height="24" viewBox="0 0 24 24" fill="none" xmlns="http://www.w3.org/2000/svg">
<g clip-path="url(#clip0_62_21)">
<path d="M21.9984 17.3531V6.64688C23.175 6.08438 24 4.88906 24 3.49687C24 1.57031 22.4297 0 20.4984 0C19.1062 0 17.9156 0.820312 17.3484 2.00156H6.64688C6.08438 0.820312 4.88906 0 3.50156 0C1.57031 0 0 1.57031 0 3.50156C0 4.89375 0.820312 6.08437 2.00156 6.65156V17.3531C0.820312 17.9156 0 19.1109 0 20.4984C0 22.4297 1.57031 24 3.50156 24C4.89375 24 6.08437 23.1797 6.65156 21.9984H17.3531C17.9156 23.175 19.1109 24 20.5031 24C22.4344 24 24.0047 22.4297 24.0047 20.4984C24 19.1109 23.1797 17.9156 21.9984 17.3531ZM20.4984 2.00156C21.3234 2.00156 21.9984 2.67656 21.9984 3.50156C21.9984 4.32656 21.3234 5.00156 20.4984 5.00156C19.6734 5.00156 18.9984 4.32656 18.9984 3.50156C18.9984 2.67656 19.6734 2.00156 20.4984 2.00156ZM3.50156 2.00156C4.32656 2.00156 5.00156 2.67656 5.00156 3.50156C5.00156 4.32656 4.32656 5.00156 3.50156 5.00156C2.67656 5.00156 2.00156 4.32656 2.00156 3.50156C2.00156 2.67656 2.67187 2.00156 3.50156 2.00156ZM3.50156 21.9984C2.67656 21.9984 2.00156 21.3234 2.00156 20.4984C2.00156 19.6734 2.67656 18.9984 3.50156 18.9984C4.32656 18.9984 5.00156 19.6734 5.00156 20.4984C5.00156 21.3281 4.32656 21.9984 3.50156 21.9984ZM17.0531 20.0016H6.94687C6.72656 18.4734 5.52188 17.2734 3.99844 17.0531V6.94687C5.52656 6.72656 6.72656 5.52188 6.94687 3.99844H17.0484C17.2688 5.52656 18.4734 6.72656 19.9969 6.94687V17.0484C18.4734 17.2688 17.2687 18.4734 17.0531 20.0016ZM20.4984 21.9984C19.6734 21.9984 18.9984 21.3234 18.9984 20.4984C18.9984 19.6734 19.6734 18.9984 20.4984 18.9984C21.3234 18.9984 21.9984 19.6734 21.9984 20.4984C21.9984 21.3281 21.3281 21.9984 20.4984 21.9984Z" fill="#5F78AA"/>
</g>
<defs>
<clipPath id="clip0_62_21">
<rect width="24" height="24" fill="white"/>
</clipPath>
</defs>
</svg>
