<svg width="20" height="20" viewBox="0 0 20 20" fill="none" xmlns="http://www.w3.org/2000/svg">
<g clip-path="url(#clip0_0_542)">
<path d="M20 10C20 10.4609 19.625 10.832 19.168 10.832C18.707 10.832 18.3359 10.457 18.3359 10C18.3281 5.39844 14.6016 1.67188 10 1.66797C9.53906 1.66797 9.16797 1.29297 9.16797 0.835938C9.16797 0.378906 9.53906 0 10 0C15.5195 0.0078125 19.9922 4.48047 20 10ZM13.332 10.832C13.793 10.832 14.1641 10.457 14.1641 10C14.1641 9.54297 13.7891 9.16797 13.332 9.16797H11.4336C11.2891 8.91797 11.082 8.71094 10.832 8.56641V5.83594C10.832 5.375 10.457 5.00391 10 5.00391C9.53906 5.00391 9.16797 5.37891 9.16797 5.83594V8.56641C8.37109 9.02344 8.09766 10.0391 8.55469 10.832C9.01172 11.6289 10.0273 11.9023 10.8242 11.4414C11.0781 11.2969 11.2891 11.0859 11.4336 10.832H13.332ZM1.52344 5.65234C1.0625 5.65234 0.691406 6.02734 0.691406 6.48438C0.691406 6.94141 1.06641 7.31641 1.52344 7.31641C1.98047 7.31641 2.35547 6.94141 2.35547 6.48438C2.35547 6.02734 1.98438 5.65234 1.52344 5.65234ZM1.66797 10C1.66797 9.53906 1.29297 9.16797 0.835938 9.16797C0.378906 9.16797 0 9.53906 0 10C0 10.4609 0.375 10.832 0.832031 10.832C1.28906 10.832 1.66797 10.4609 1.66797 10ZM10 18.332C9.53906 18.332 9.16797 18.707 9.16797 19.1641C9.16797 19.6211 9.53906 20 10 20C10.4609 20 10.832 19.625 10.832 19.168C10.832 18.7109 10.4609 18.332 10 18.332ZM3.51562 2.67188C3.05469 2.67188 2.68359 3.04688 2.68359 3.50391C2.68359 3.96094 3.05859 4.33594 3.51562 4.33594C3.97266 4.33594 4.34766 3.96094 4.34766 3.50391C4.34766 3.04688 3.97656 2.67188 3.51562 2.67188ZM6.48438 0.699219C6.02344 0.699219 5.65234 1.07422 5.65234 1.53125C5.65234 1.98828 6.02734 2.36328 6.48438 2.36328C6.94531 2.36328 7.31641 1.98828 7.31641 1.53125C7.31641 1.07422 6.94141 0.699219 6.48438 0.699219ZM1.52344 12.6797C1.0625 12.6797 0.691406 13.0547 0.691406 13.5117C0.691406 13.9727 1.06641 14.3438 1.52344 14.3438C1.98047 14.3438 2.35547 13.9688 2.35547 13.5117C2.35547 13.0547 1.98438 12.6797 1.52344 12.6797ZM3.51562 15.6602C3.05469 15.6602 2.68359 16.0352 2.68359 16.4922C2.68359 16.9531 3.05859 17.3242 3.51562 17.3242C3.97266 17.3242 4.34766 16.9492 4.34766 16.4922C4.35156 16.0352 3.97656 15.6602 3.51562 15.6602ZM6.48438 17.6328C6.02344 17.6328 5.65234 18.0078 5.65234 18.4648C5.65234 18.9258 6.02734 19.2969 6.48438 19.2969C6.94531 19.2969 7.31641 18.9219 7.31641 18.4648C7.31641 18.0039 6.94141 17.6328 6.48438 17.6328ZM18.4766 12.6797C18.0156 12.6797 17.6445 13.0547 17.6445 13.5117C17.6445 13.9727 18.0195 14.3438 18.4766 14.3438C18.9336 14.3438 19.3086 13.9688 19.3086 13.5117C19.3125 13.0547 18.9375 12.6797 18.4766 12.6797ZM16.4844 15.6602C16.0234 15.6602 15.6523 16.0352 15.6523 16.4922C15.6523 16.9531 16.0273 17.3242 16.4844 17.3242C16.9414 17.3242 17.3164 16.9492 17.3164 16.4922C17.3164 16.0352 16.9414 15.6602 16.4844 15.6602ZM13.5156 17.6328C13.0547 17.6328 12.6836 18.0078 12.6836 18.4648C12.6836 18.9258 13.0586 19.2969 13.5156 19.2969C13.9727 19.2969 14.3477 18.9219 14.3477 18.4648C14.3516 18.0039 13.9766 17.6328 13.5156 17.6328Z" fill="#EAEAEA"/>
</g>
<defs>
<clipPath id="clip0_0_542">
<rect width="20" height="20" fill="white"/>
</clipPath>
</defs>
</svg>
