<svg width="20" height="20" viewBox="0 0 20 20" fill="none" xmlns="http://www.w3.org/2000/svg">
<g clip-path="url(#clip0_0_502)">
<path d="M18.8086 8.77344L17.9805 9.60156L10.4102 2.03125L11.2383 1.20312L10.0625 0.0234375L3.48828 6.59766L4.66797 7.77734L5.52344 6.92187L8.71094 10.1094L0.0195312 18.8008L1.19922 19.9805L9.89062 11.293L13.0859 14.4922L12.2305 15.3477L13.4102 16.5273L19.9844 9.95312L18.8086 8.77344ZM14.5781 8.55469L12.043 11.0898L8.98438 8.03125L11.5195 5.49609L14.5781 8.55469ZM9.23438 3.21094L10.3398 4.31641L7.80469 6.85156L6.69922 5.74609L9.23438 3.21094ZM13.2227 12.2695L15.7578 9.73438L16.8047 10.7812L14.2695 13.3164L13.2227 12.2695Z" fill="#EAEAEA"/>
</g>
<defs>
<clipPath id="clip0_0_502">
<rect width="20" height="20" fill="white"/>
</clipPath>
</defs>
</svg>
