<svg width="20" height="20" viewBox="0 0 20 20" fill="none" xmlns="http://www.w3.org/2000/svg">
<g clip-path="url(#clip0_0_581)">
<path d="M5.83203 5H19.1641C19.625 5 19.9961 4.625 19.9961 4.16797C19.9961 3.71094 19.6211 3.33594 19.1641 3.33594H5.83203C5.37109 3.33594 5 3.71094 5 4.16797C5 4.625 5.375 5 5.83203 5Z" fill="#EAEAEA"/>
<path d="M19.168 9.16797H5.83203C5.37109 9.16797 5 9.54297 5 10C5 10.457 5.375 10.832 5.83203 10.832H19.1641C19.625 10.832 19.9961 10.457 19.9961 10C19.9961 9.54297 19.625 9.16797 19.168 9.16797Z" fill="#EAEAEA"/>
<path d="M19.168 15H5.83203C5.37109 15 5 15.375 5 15.832C5 16.293 5.375 16.6641 5.83203 16.6641H19.1641C19.625 16.6641 19.9961 16.2891 19.9961 15.832C20 15.375 19.625 15 19.168 15Z" fill="#EAEAEA"/>
<path d="M1.66797 5.83594C2.58916 5.83594 3.33594 5.08916 3.33594 4.16797C3.33594 3.24677 2.58916 2.5 1.66797 2.5C0.746775 2.5 0 3.24677 0 4.16797C0 5.08916 0.746775 5.83594 1.66797 5.83594Z" fill="#EAEAEA"/>
<path d="M1.66797 11.668C2.58916 11.668 3.33594 10.9212 3.33594 10C3.33594 9.07881 2.58916 8.33203 1.66797 8.33203C0.746775 8.33203 0 9.07881 0 10C0 10.9212 0.746775 11.668 1.66797 11.668Z" fill="#EAEAEA"/>
<path d="M1.66797 17.5C2.58916 17.5 3.33594 16.7532 3.33594 15.832C3.33594 14.9108 2.58916 14.1641 1.66797 14.1641C0.746775 14.1641 0 14.9108 0 15.832C0 16.7532 0.746775 17.5 1.66797 17.5Z" fill="#EAEAEA"/>
</g>
<defs>
<clipPath id="clip0_0_581">
<rect width="20" height="20" fill="white"/>
</clipPath>
</defs>
</svg>
