<svg width="200" height="51" viewBox="0 0 200 51" fill="none" xmlns="http://www.w3.org/2000/svg">
<g clip-path="url(#clip0_1_385)">
<path d="M30.9351 0.865234V8.68135H23.201V0.865234H15.4681V8.68135H7.73403V0.865234H-6.10352e-05V27.7224L0.00467002 27.7177L8.24735 19.4344L13.1582 24.3718L13.1807 24.3932L1.65226 35.9783C2.14192 37.0908 2.73212 38.1475 3.41458 39.1364L3.46662 39.2136C4.11596 40.1526 4.84927 41.031 5.65 41.838C9.14862 45.361 13.9885 47.5432 19.3346 47.5432C24.0503 47.5432 28.3709 45.8459 31.7264 43.0278C32.6147 42.2825 33.4355 41.4565 34.1771 40.565C34.5378 40.1312 34.8808 39.6795 35.2025 39.2148C35.5538 38.7109 35.8803 38.1891 36.1807 37.653C36.7863 36.575 37.2937 35.4327 37.6863 34.2394C38.1169 32.9427 38.4126 31.5877 38.558 30.1875C38.6314 29.5053 38.668 28.8147 38.668 28.1123V0.865234H30.9351ZM19.3346 44.0571C14.9453 44.0571 10.9736 42.2659 8.10069 39.3717C7.27512 38.5409 6.54062 37.6185 5.91612 36.6213L15.6337 26.8559L29.2615 40.5508C26.5435 42.7449 23.0922 44.0571 19.3358 44.0571H19.3346ZM31.7122 38.0868L13.1499 19.4333L15.6006 16.9705L15.6112 16.9812L18.0832 19.4653L33.6129 35.0714C33.0901 36.1495 32.4514 37.1598 31.7098 38.0857L31.7122 38.0868ZM35.2025 28.1123C35.2025 29.239 35.0854 30.3397 34.8643 31.4011L25.4483 21.94H25.4495L27.9002 19.4772L35.2014 26.8143V28.1123H35.2025Z" fill="#C5815C"/>
<path d="M56.8725 0.817871V31.7118H49.4589V0.817871H56.8725ZM51.5191 12.0724H74.7264V18.7802H51.5191V12.0724ZM77.4911 0.817871V31.7118H70.0776V0.817871H77.4911Z" fill="#FDFDFD"/>
<path d="M91.4881 0.817871V31.7118H83.9413V0.817871H91.4881Z" fill="#FDFDFD"/>
<path d="M105.394 0.817871V25.3108H117.723V31.7096H97.9804V0.817871H105.394Z" fill="#FDFDFD"/>
<path d="M128.558 0.817871V25.3108H140.887V31.7096H121.144V0.817871H128.558Z" fill="#FDFDFD"/>
<path d="M151.415 0.817871V31.7118H144.309V0.817871H151.415ZM149.222 0.817871H162.953V7.21664H149.222V0.817871ZM149.222 13.3085H162.515V19.3097H149.222V13.3085Z" fill="#FDFDFD"/>
<path d="M168.067 9.73217C168.9 7.76133 170.063 6.05412 171.556 4.61273C173.046 3.17133 174.801 2.06056 176.821 1.28044C178.838 0.50031 181.018 0.111328 183.358 0.111328C185.697 0.111328 187.912 0.502471 189.916 1.28044C191.919 2.06056 193.667 3.17133 195.158 4.61273C196.649 6.05412 197.805 7.76133 198.623 9.73217C199.442 11.703 199.852 13.8813 199.852 16.2649C199.852 18.6485 199.45 20.8398 198.645 22.8409C197.839 24.842 196.698 26.5773 195.223 28.049C193.745 29.5206 191.998 30.6595 189.981 31.4698C187.964 32.2781 185.753 32.6843 183.356 32.6843C180.958 32.6843 178.705 32.2802 176.688 31.4698C174.67 30.6616 172.922 29.5206 171.444 28.049C169.966 26.5773 168.825 24.842 168.022 22.8409C167.216 20.8398 166.814 18.6485 166.814 16.2649C166.814 13.8813 167.231 11.7052 168.065 9.73217H168.067ZM175.745 21.097C176.46 22.4951 177.47 23.5908 178.771 24.3839C180.073 25.1791 181.601 25.5746 183.356 25.5746C185.111 25.5746 186.595 25.177 187.897 24.3839C189.199 23.5886 190.206 22.493 190.924 21.097C191.639 19.6988 191.998 18.0888 191.998 16.2649C191.998 14.441 191.648 12.8311 190.945 11.4329C190.243 10.0347 189.248 8.93908 187.962 8.14599C186.675 7.35073 185.139 6.95527 183.356 6.95527C181.573 6.95527 180.071 7.3529 178.771 8.14599C177.47 8.94124 176.46 10.0369 175.745 11.4329C175.027 12.8311 174.67 14.441 174.67 16.2649C174.67 18.0888 175.029 19.7009 175.745 21.097Z" fill="#FDFDFD"/>
<path d="M52.2624 50.8725H50.4299L52.359 46.4792L49.3945 39.9702H51.3708L53.7146 45.805L52.9025 45.7574L55.1968 39.9702H57.0465L52.2645 50.8725H52.2624Z" fill="#FDFDFD"/>
<path d="M57.8184 41.6534C58.1643 41.0764 58.6369 40.6248 59.2363 40.2985C59.8356 39.9721 60.508 39.8101 61.2513 39.8101C61.9946 39.8101 62.6799 39.9721 63.2749 40.2985C63.87 40.6248 64.3405 41.0764 64.6863 41.6534C65.0322 42.2304 65.204 42.8981 65.204 43.6567C65.204 44.4152 65.0322 45.07 64.6863 45.6535C64.3405 46.2369 63.87 46.6907 63.2749 47.0171C62.6799 47.3434 62.0053 47.5054 61.2513 47.5054C60.4973 47.5054 59.8356 47.3434 59.2363 47.0171C58.6369 46.6907 58.1622 46.2369 57.8184 45.6535C57.4726 45.07 57.3007 44.4065 57.3007 43.6567C57.3007 42.9068 57.4726 42.2304 57.8184 41.6534ZM59.3566 44.8668C59.5478 45.2148 59.8077 45.487 60.1385 45.6837C60.4672 45.8825 60.8389 45.9798 61.2535 45.9798C61.6681 45.9798 62.0397 45.8804 62.3684 45.6837C62.6971 45.487 62.9591 45.2148 63.1503 44.8668C63.3415 44.5189 63.4382 44.117 63.4382 43.6567C63.4382 43.1964 63.3415 42.7901 63.1503 42.4379C62.9591 42.0856 62.6992 41.8133 62.3684 41.621C62.0397 41.4287 61.6681 41.3336 61.2535 41.3336C60.8389 41.3336 60.4672 41.4287 60.1385 41.621C59.8098 41.8133 59.5478 42.0856 59.3566 42.4379C59.1654 42.7901 59.0687 43.1964 59.0687 43.6567C59.0687 44.117 59.1654 44.5189 59.3566 44.8668Z" fill="#FDFDFD"/>
<path d="M68.9489 45.6775C69.1724 45.967 69.5182 46.1097 69.9844 46.1097C70.3023 46.1097 70.5838 46.0405 70.8286 45.9022C71.0735 45.7639 71.2647 45.5716 71.4022 45.3252C71.5397 45.0789 71.6085 44.7914 71.6085 44.4587V39.9702H73.3292V47.3458H71.6085V46.2069C71.3743 46.6348 71.0757 46.9589 70.7083 47.1772C70.341 47.3955 69.9028 47.5057 69.3936 47.5057C68.5752 47.5057 67.9457 47.2485 67.5053 46.7364C67.065 46.2242 66.8437 45.5284 66.8437 44.6531V39.9724H68.6117V44.4608C68.6117 44.9838 68.7234 45.39 68.9468 45.6796L68.9489 45.6775Z" fill="#FDFDFD"/>
<path d="M77.2349 47.3458H75.5292V39.9702H77.2349V47.3458ZM78.9793 41.5262C78.8354 41.4613 78.6571 41.4289 78.4444 41.4289C78.1565 41.4289 77.9245 41.5046 77.7441 41.6537C77.5636 41.8028 77.4326 42.0081 77.3531 42.2717C77.2736 42.5332 77.2328 42.8401 77.2328 43.1945L76.6592 42.8574C76.6592 42.2696 76.7688 41.7488 76.9857 41.2949C77.2027 40.8411 77.4841 40.4781 77.83 40.2058C78.1759 39.9335 78.5346 39.7974 78.9062 39.7974C79.1726 39.7974 79.4218 39.8406 79.656 39.9249C79.8901 40.0113 80.0921 40.1539 80.2618 40.3571L79.4175 41.8158C79.2693 41.6883 79.1232 41.591 78.9793 41.5262Z" fill="#FDFDFD"/>
<path d="M89.364 39.9704V41.4939H85.205V39.9704H89.364ZM88.1374 37.4053V47.346H86.4488V37.4053H88.1374Z" fill="#FDFDFD"/>
<path d="M92.2466 47.3458H90.541V39.9702H92.2466V47.3458ZM93.991 41.5262C93.8471 41.4613 93.6688 41.4289 93.4561 41.4289C93.1682 41.4289 92.9362 41.5046 92.7558 41.6537C92.5753 41.8028 92.4443 42.0081 92.3648 42.2717C92.2853 42.5354 92.2445 42.8401 92.2445 43.1945L91.6709 42.8574C91.6709 42.2696 91.7805 41.7488 91.9975 41.2949C92.2144 40.8411 92.4958 40.4781 92.8417 40.2058C93.1876 39.9335 93.5463 39.7974 93.918 39.7974C94.1844 39.7974 94.4335 39.8406 94.6677 39.9249C94.9019 40.0091 95.1038 40.1539 95.2735 40.3571L94.4293 41.8158C94.281 41.6883 94.135 41.591 93.991 41.5262Z" fill="#FDFDFD"/>
<path d="M98.5583 45.6775C98.7817 45.967 99.1276 46.1097 99.5938 46.1097C99.9117 46.1097 100.193 46.0405 100.438 45.9022C100.683 45.7639 100.874 45.5716 101.012 45.3252C101.149 45.0789 101.218 44.7914 101.218 44.4587V39.9702H102.939V47.3458H101.218V46.2069C100.984 46.6348 100.685 46.9589 100.318 47.1772C99.9504 47.3955 99.5121 47.5057 99.003 47.5057C98.1845 47.5057 97.5551 47.2485 97.1147 46.7364C96.6743 46.2242 96.4531 45.5284 96.4531 44.6531V39.9724H98.2232V44.4608C98.2232 44.9838 98.3349 45.39 98.5583 45.6796V45.6775Z" fill="#FDFDFD"/>
<path d="M106.194 45.5825C106.428 45.764 106.666 45.9023 106.911 45.9996C107.156 46.0968 107.399 46.1444 107.644 46.1444C107.951 46.1444 108.194 46.0752 108.37 45.9369C108.546 45.7986 108.632 45.6063 108.632 45.3599C108.632 45.146 108.563 44.9623 108.426 44.8067C108.288 44.6511 108.097 44.5193 107.852 44.4069C107.607 44.2945 107.321 44.18 106.991 44.0633C106.662 43.9358 106.335 43.7824 106.011 43.6073C105.687 43.4301 105.42 43.1989 105.214 42.9093C105.008 42.6219 104.902 42.2567 104.902 41.8202C104.902 41.3836 105.016 40.9968 105.246 40.6986C105.474 40.4004 105.783 40.1778 106.17 40.033C106.557 39.8882 106.975 39.8169 107.42 39.8169C107.824 39.8169 108.204 39.8752 108.559 39.9941C108.915 40.1108 109.235 40.2664 109.523 40.4587C109.809 40.651 110.054 40.8715 110.256 41.1157L109.3 42.1422C109.066 41.8547 108.78 41.6192 108.438 41.4377C108.099 41.2561 107.747 41.1654 107.386 41.1654C107.13 41.1654 106.924 41.2194 106.765 41.3253C106.606 41.4312 106.526 41.5868 106.526 41.7899C106.526 41.9606 106.597 42.1141 106.741 42.2459C106.885 42.3799 107.076 42.4987 107.315 42.6068C107.553 42.7148 107.822 42.825 108.12 42.9439C108.535 43.1038 108.911 43.281 109.253 43.4733C109.592 43.6657 109.863 43.9012 110.065 44.1778C110.267 44.4566 110.368 44.8196 110.368 45.267C110.368 45.9628 110.131 46.5204 109.659 46.9418C109.186 47.3632 108.55 47.5749 107.753 47.5749C107.244 47.5749 106.78 47.4972 106.368 47.3416C105.955 47.186 105.588 46.9828 105.268 46.7321C104.95 46.4815 104.683 46.2157 104.471 45.9391L105.474 44.9126C105.719 45.1805 105.957 45.4053 106.191 45.5868L106.194 45.5825Z" fill="#FDFDFD"/>
<path d="M115.038 39.9704V41.4939H110.879V39.9704H115.038ZM113.811 37.4053V47.346H112.123V37.4053H113.811Z" fill="#FDFDFD"/>
<path d="M117.435 47.0255C116.865 46.7057 116.427 46.2562 116.12 45.6792C115.811 45.1022 115.658 44.4279 115.658 43.6586C115.658 42.8893 115.815 42.1999 116.129 41.6229C116.442 41.0459 116.885 40.5986 117.458 40.2853C118.032 39.9698 118.706 39.812 119.482 39.812C120.257 39.812 120.919 39.9611 121.467 40.2615C122.015 40.5597 122.432 40.9919 122.717 41.5516C123.003 42.1113 123.147 42.7899 123.147 43.5787C123.147 43.6651 123.145 43.7559 123.138 43.851C123.132 43.9482 123.13 44.0173 123.13 44.0584H116.691V42.8569H121.647L121.121 43.5938C121.153 43.529 121.188 43.4447 121.224 43.3366C121.261 43.2307 121.28 43.14 121.28 43.0643C121.28 42.6689 121.203 42.3274 121.048 42.0379C120.893 41.7504 120.681 41.5257 120.41 41.3636C120.139 41.2037 119.824 41.1237 119.463 41.1237C119.027 41.1237 118.657 41.221 118.354 41.4112C118.051 41.6035 117.817 41.8823 117.654 42.2453C117.488 42.6084 117.407 43.0579 117.407 43.5916C117.396 44.1146 117.473 44.5641 117.639 44.9379C117.804 45.3118 118.041 45.5949 118.348 45.7872C118.655 45.9796 119.033 46.0768 119.48 46.0768C119.959 46.0768 120.371 45.9796 120.724 45.7872C121.074 45.5949 121.362 45.301 121.585 44.9055L123.082 45.4998C122.689 46.1632 122.191 46.6624 121.585 46.9995C120.979 47.3367 120.251 47.5052 119.403 47.5052C118.659 47.5052 118.002 47.3453 117.435 47.0233V47.0255Z" fill="#FDFDFD"/>
<path d="M124.744 41.5825C125.073 41.0098 125.511 40.5733 126.059 40.2686C126.607 39.9639 127.193 39.8126 127.82 39.8126C128.448 39.8126 128.976 39.9682 129.438 40.2772C129.9 40.5863 130.267 41.0271 130.538 41.5998C130.808 42.1725 130.944 42.8575 130.944 43.6592C130.944 44.461 130.808 45.1352 130.538 45.7122C130.267 46.2892 129.9 46.7322 129.438 47.0434C128.976 47.3524 128.437 47.508 127.82 47.508C127.204 47.508 126.607 47.3546 126.059 47.052C125.511 46.7473 125.073 46.3065 124.744 45.7295C124.415 45.1525 124.25 44.4631 124.25 43.6614C124.25 42.8597 124.415 42.1573 124.744 41.5847V41.5825ZM126.338 44.9256C126.54 45.2778 126.808 45.5458 127.144 45.7273C127.479 45.9089 127.842 45.9996 128.235 45.9996C128.574 45.9996 128.905 45.9089 129.223 45.7273C129.541 45.5458 129.805 45.2822 130.011 44.9342C130.218 44.5863 130.323 44.1628 130.323 43.6592C130.323 43.1557 130.22 42.7322 130.011 42.3842C129.805 42.0363 129.541 41.7727 129.223 41.5911C128.905 41.4096 128.574 41.3189 128.235 41.3189C127.842 41.3189 127.479 41.4096 127.144 41.5911C126.808 41.7727 126.54 42.0406 126.338 42.3929C126.136 42.7451 126.035 43.1687 126.035 43.6592C126.035 44.1498 126.136 44.5733 126.338 44.9256ZM132.059 34.8423V47.3481H130.321V34.8423H132.059Z" fill="#FDFDFD"/>
<path d="M138.91 50.873V39.9706H140.648V50.873H138.91ZM146.225 45.7514C145.896 46.3348 145.46 46.7778 144.919 47.0825C144.377 47.3873 143.787 47.5385 143.151 47.5385C142.515 47.5385 141.995 47.3808 141.533 47.0653C141.071 46.7498 140.712 46.3003 140.457 45.7189C140.201 45.1376 140.074 44.4504 140.074 43.6595C140.074 42.8686 140.201 42.1684 140.457 41.5914C140.712 41.0144 141.071 40.5649 141.533 40.2451C141.995 39.9253 142.534 39.7632 143.151 39.7632C143.767 39.7632 144.377 39.9188 144.919 40.2278C145.46 40.5368 145.896 40.9777 146.225 41.5503C146.553 42.123 146.719 42.8253 146.719 43.6595C146.719 44.4936 146.553 45.17 146.225 45.7514ZM144.631 42.4018C144.429 42.0539 144.163 41.7924 143.834 41.6173C143.505 41.4423 143.138 41.3537 142.734 41.3537C142.395 41.3537 142.064 41.4423 141.746 41.6173C141.428 41.7924 141.164 42.0539 140.957 42.3953C140.751 42.7367 140.646 43.1603 140.646 43.6617C140.646 44.163 140.749 44.5866 140.957 44.928C141.164 45.2695 141.428 45.5288 141.746 45.706C142.064 45.8832 142.395 45.9696 142.734 45.9696C143.138 45.9696 143.503 45.8789 143.834 45.6973C144.163 45.5158 144.429 45.2543 144.631 44.9129C144.833 44.5714 144.934 44.1544 144.934 43.6617C144.934 43.1689 144.833 42.7497 144.631 42.4039V42.4018Z" fill="#FDFDFD"/>
<path d="M149.621 45.6863C149.737 45.8635 149.9 45.9932 150.107 46.0797C150.313 46.1661 150.549 46.2072 150.815 46.2072C151.166 46.2072 151.481 46.1358 151.763 45.991C152.044 45.8463 152.27 45.641 152.44 45.373C152.609 45.105 152.695 44.7852 152.695 44.4113L152.951 45.373C152.951 45.8441 152.815 46.2396 152.545 46.5594C152.274 46.8792 151.935 47.1169 151.524 47.2725C151.116 47.4281 150.697 47.5059 150.274 47.5059C149.817 47.5059 149.391 47.4152 148.998 47.2336C148.605 47.0521 148.291 46.7841 148.057 46.4319C147.823 46.0796 147.707 45.6518 147.707 45.1504C147.707 44.4351 147.956 43.8646 148.457 43.4432C148.955 43.0218 149.662 42.81 150.577 42.81C151.065 42.81 151.488 42.8641 151.844 42.9699C152.201 43.078 152.495 43.2033 152.73 43.346C152.964 43.4907 153.129 43.6204 153.224 43.7393V44.621C152.895 44.3854 152.543 44.2147 152.171 44.1088C151.799 44.0029 151.406 43.9489 150.992 43.9489C150.631 43.9489 150.339 43.9943 150.115 44.085C149.892 44.1758 149.724 44.3011 149.612 44.461C149.501 44.621 149.445 44.8198 149.445 45.0553C149.445 45.2909 149.503 45.5113 149.621 45.6885V45.6863ZM148.203 40.6771C148.543 40.474 148.972 40.2773 149.494 40.0828C150.014 39.8905 150.62 39.7954 151.312 39.7954C151.907 39.7954 152.437 39.884 152.906 40.0591C153.374 40.2363 153.737 40.4956 153.997 40.837C154.257 41.1785 154.388 41.5955 154.388 42.0883V47.346H152.699V42.4232C152.699 42.1877 152.663 41.9953 152.588 41.8462C152.513 41.6971 152.405 41.5739 152.261 41.4767C152.117 41.3794 151.95 41.3103 151.759 41.2692C151.567 41.226 151.359 41.2044 151.138 41.2044C150.798 41.2044 150.476 41.2455 150.173 41.3254C149.87 41.4054 149.612 41.5026 149.4 41.6128C149.187 41.7252 149.022 41.8181 148.906 41.8938L148.205 40.6749L148.203 40.6771Z" fill="#FDFDFD"/>
<path d="M158.096 47.3458H156.391V39.9702H158.096V47.3458ZM159.841 41.5262C159.697 41.4613 159.518 41.4289 159.308 41.4289C159.02 41.4289 158.788 41.5046 158.608 41.6537C158.427 41.8028 158.296 42.0081 158.217 42.2717C158.137 42.5354 158.096 42.8401 158.096 43.1945L157.523 42.8574C157.523 42.2696 157.632 41.7488 157.849 41.2949C158.066 40.8411 158.348 40.4781 158.693 40.2058C159.039 39.9335 159.398 39.7974 159.77 39.7974C160.036 39.7974 160.285 39.8406 160.519 39.9249C160.754 40.0113 160.956 40.1539 161.125 40.3571L160.281 41.8158C160.133 41.6883 159.987 41.591 159.843 41.5262H159.841Z" fill="#FDFDFD"/>
<path d="M165.444 39.9704V41.4939H161.285V39.9704H165.444ZM164.217 37.4053V47.346H162.529V37.4053H164.217Z" fill="#FDFDFD"/>
<path d="M171.006 41.6212C170.782 41.3424 170.443 41.2041 169.985 41.2041C169.656 41.2041 169.369 41.2711 169.124 41.4051C168.879 41.5391 168.69 41.7314 168.559 41.9821C168.426 42.2328 168.359 42.5245 168.359 42.8551V47.3436H166.621V39.968H168.359V41.1069C168.593 40.6682 168.894 40.3419 169.259 40.1279C169.626 39.914 170.058 39.8081 170.559 39.8081C171.388 39.8081 172.02 40.0609 172.456 40.5688C172.892 41.0766 173.109 41.7681 173.109 42.6455V47.3436H171.341V42.8551C171.341 42.3106 171.229 41.9 171.006 41.6212Z" fill="#FDFDFD"/>
<path d="M176.528 47.0255C175.959 46.7057 175.521 46.2562 175.214 45.6792C174.904 45.1022 174.752 44.4279 174.752 43.6586C174.752 42.8893 174.909 42.1999 175.222 41.6229C175.536 41.0459 175.979 40.5986 176.552 40.2853C177.126 39.9698 177.8 39.812 178.576 39.812C179.351 39.812 180.013 39.9611 180.561 40.2615C181.109 40.5597 181.525 40.9919 181.811 41.5516C182.097 42.1113 182.241 42.7899 182.241 43.5787C182.241 43.6651 182.238 43.7559 182.232 43.851C182.226 43.9482 182.223 44.0173 182.223 44.0584H175.785V42.8569H180.741L180.215 43.5938C180.247 43.529 180.281 43.4447 180.318 43.3366C180.354 43.2307 180.374 43.14 180.374 43.0643C180.374 42.6689 180.296 42.3274 180.142 42.0379C179.987 41.7504 179.774 41.5257 179.504 41.3636C179.233 41.2037 178.917 41.1237 178.556 41.1237C178.12 41.1237 177.751 41.221 177.448 41.4112C177.145 41.6035 176.911 41.8823 176.748 42.2453C176.582 42.6084 176.501 43.0579 176.501 43.5916C176.49 44.1146 176.567 44.5641 176.733 44.9379C176.898 45.3118 177.134 45.5949 177.441 45.7872C177.749 45.9796 178.127 46.0768 178.574 46.0768C179.053 46.0768 179.465 45.9796 179.817 45.7872C180.168 45.5949 180.455 45.301 180.679 44.9055L182.176 45.4998C181.783 46.1632 181.285 46.6624 180.679 46.9995C180.073 47.3367 179.345 47.5052 178.496 47.5052C177.753 47.5052 177.096 47.3453 176.528 47.0233V47.0255Z" fill="#FDFDFD"/>
<path d="M185.604 47.3458H183.898V39.9702H185.604V47.3458ZM187.348 41.5262C187.204 41.4613 187.026 41.4289 186.816 41.4289C186.528 41.4289 186.296 41.5046 186.115 41.6537C185.935 41.8028 185.804 42.0081 185.724 42.2717C185.645 42.5354 185.604 42.8401 185.604 43.1945L185.03 42.8574C185.03 42.2696 185.14 41.7488 185.357 41.2949C185.574 40.8411 185.855 40.4781 186.201 40.2058C186.547 39.9335 186.906 39.7974 187.278 39.7974C187.544 39.7974 187.793 39.8406 188.027 39.9249C188.261 40.0113 188.463 40.1539 188.633 40.3571L187.789 41.8158C187.641 41.6883 187.495 41.591 187.351 41.5262H187.348Z" fill="#FDFDFD"/>
</g>
<defs>
<clipPath id="clip0_1_385">
<rect width="200" height="51" fill="white"/>
</clipPath>
</defs>
</svg>
